<svg width="24" height="27" fill="none" xmlns="http://www.w3.org/2000/svg"><g clip-path="url(#clip0)"><path d="M23.71 2.216a.99.99 0 00-.492-.279.964.964 0 00-.558.04l-22 8.32c-.19.075-.353.208-.468.382a1.07 1.07 0 000 1.181c.115.174.278.307.468.382l9.6 3.993 3.84 9.984c.072.19.196.352.356.468.16.116.349.182.544.188a.975.975 0 00.562-.195 1.03 1.03 0 00.358-.492l8-22.88a1.08 1.08 0 00-.21-1.092zM15 22.923l-2.79-7.28L17 10.66l-1.41-1.466-4.83 5.023-6.96-2.943L21.33 4.69 15 22.923z" fill="#8EC2F2"/></g><defs><clipPath id="clip0"><path fill="#fff" transform="translate(0 .875)" d="M0 0h24v26H0z"/></clipPath></defs></svg>